<svg width="24" height="24" viewBox="0 0 24 24" fill="none" xmlns="http://www.w3.org/2000/svg">
<rect opacity="0.01" width="24" height="24" fill="black"/>
<path fill-rule="evenodd" clip-rule="evenodd" d="M12 22.5C6.21 22.5 1.5 17.79 1.5 12C1.5 6.21 6.21 1.5 12 1.5C17.79 1.5 22.5 6.21 22.5 12C22.5 17.79 17.79 22.5 12 22.5ZM12 3.00675C7.041 3.00675 3.00675 7.041 3.00675 12C3.00675 16.9583 7.041 20.9932 12 20.9932C16.9583 20.9932 20.9932 16.9583 20.9932 12C20.9932 7.041 16.9583 3.00675 12 3.00675ZM16.299 8.8245L13.056 12.0322L16.302 15.2887C16.5945 15.5827 16.5938 16.0568 16.3005 16.3493C16.1543 16.4948 15.963 16.5683 15.771 16.5683C15.5782 16.5683 15.3863 16.4948 15.24 16.3477L11.9895 13.0868L8.76525 16.2757C8.619 16.4197 8.4285 16.4925 8.238 16.4925C8.0445 16.4925 7.85175 16.4183 7.70475 16.2698C7.41375 15.975 7.416 15.501 7.71075 15.2092L10.9305 12.024L7.737 8.82075C7.4445 8.5275 7.44525 8.05275 7.7385 7.76025C8.03175 7.467 8.50575 7.4685 8.799 7.76175L11.997 10.9695L15.2445 7.758C15.5385 7.467 16.014 7.46925 16.305 7.764C16.596 8.05875 16.5938 8.5335 16.299 8.8245Z" fill="#3E3E3E"/>
</svg>
