<svg width="24" height="24" viewBox="0 0 24 24" fill="none" xmlns="http://www.w3.org/2000/svg">
<path d="M19.25 6C19.25 5.58579 19.5858 5.25 20 5.25C20.4142 5.25 20.75 5.58579 20.75 6V19.25C20.75 20.7687 19.5187 22 18 22H6C4.48125 22 3.25 20.7687 3.25 19.25V4.75C3.25 3.23125 4.48125 2 6 2H20C20.4142 2 20.75 2.33579 20.75 2.75C20.75 3.16421 20.4142 3.5 20 3.5H6C5.66848 3.5 5.35054 3.6317 5.11612 3.86612C4.8817 4.10054 4.75 4.41848 4.75 4.75V19.25C4.75 19.5815 4.8817 19.8995 5.11612 20.1339C5.35054 20.3683 5.66848 20.5 6 20.5H18C18.3315 20.5 18.6495 20.3683 18.8839 20.1339C19.1183 19.8995 19.25 19.5815 19.25 19.25V6ZM8 10.25C7.58579 10.25 7.25 9.91421 7.25 9.5C7.25 9.08579 7.58579 8.75 8 8.75H16C16.4142 8.75 16.75 9.08579 16.75 9.5C16.75 9.91421 16.4142 10.25 16 10.25H8ZM8 14.25C7.58579 14.25 7.25 13.9142 7.25 13.5C7.25 13.0858 7.58579 12.75 8 12.75H13C13.4142 12.75 13.75 13.0858 13.75 13.5C13.75 13.9142 13.4142 14.25 13 14.25H8Z" fill="#3E3E3E"/>
</svg>
