<svg width="24" height="24" viewBox="0 0 24 24" fill="none" xmlns="http://www.w3.org/2000/svg">
<path d="M10.4595 13.44C9.72159 12.7387 9.07636 11.9459 8.5395 11.081C10.1283 10.3668 11.1678 8.8905 11.1678 7.1015C11.1675 4.56075 9.11625 2.5 6.58375 2.5C3.98575 2.5 2 4.42375 2 7.1015C2 10.8105 3.935 14.802 6.702 17.406C9.046 19.612 12.772 21.1967 16.3925 21.4975C16.412 21.4992 16.4317 21.5 16.4515 21.5H17.4163C17.8113 21.5 18.1316 21.1797 18.1316 20.7846C18.1316 20.3895 17.8113 20.0693 17.4163 20.0693H16.4818C13.1848 19.7885 9.778 18.3365 7.682 16.364C5.188 14.0165 3.43025 10.3913 3.43025 7.1015C3.43025 5.224 4.76575 3.93075 6.58375 3.93075C8.32475 3.93075 9.73725 5.3495 9.73725 7.1015C9.73725 8.515 8.77875 9.6325 7.323 9.9925C7.1103 10.045 6.93339 10.1921 6.84296 10.3917C6.75252 10.5912 6.75852 10.8212 6.85925 11.0157C7.5055 12.2652 8.407 13.4633 9.47425 14.4773C10.6757 15.6185 12.051 16.4955 13.5068 17.0123C13.7074 17.0836 13.9294 17.0617 14.1124 16.9527C14.2953 16.8436 14.4201 16.6587 14.4528 16.4482C14.6978 14.8757 15.897 13.7758 17.4163 13.7758C19.157 13.7758 20.5697 15.1948 20.5697 16.9465C20.5697 17.546 20.4047 18.119 20.0975 18.6165C19.903 18.9517 20.0106 19.3807 20.3403 19.5844C20.67 19.788 21.1019 19.6922 21.3145 19.3682C21.7639 18.6405 22.0013 17.8018 22 16.9465C22 14.406 19.9485 12.345 17.4163 12.345C15.4693 12.345 13.8723 13.5727 13.2533 15.3652C12.2603 14.907 11.3133 14.251 10.4595 13.44Z" fill="#3E3E3E"/>
</svg>
