<svg width="24" height="24" viewBox="0 0 24 24" fill="none" xmlns="http://www.w3.org/2000/svg">
<path d="M18.692 17.6313C20.1467 15.9265 20.972 13.764 20.972 11.4862C20.9723 6.24675 16.7255 2 11.4862 2C6.247 2 2 6.247 2 11.486C2 16.7253 6.247 20.9725 11.486 20.9725C12.4248 20.9733 13.3584 20.8347 14.2565 20.5613C14.6502 20.4385 14.871 20.0209 14.7507 19.6265C14.6304 19.232 14.2142 19.0087 13.819 19.1265C13.0627 19.3567 12.2765 19.4733 11.486 19.4725C7.0755 19.4722 3.5 15.8967 3.5 11.486C3.5 7.0755 7.0755 3.5 11.486 3.5C15.8967 3.5 19.4725 7.0755 19.4725 11.486C19.4725 13.5785 18.6432 15.557 17.1957 17.0483C16.8657 17.3882 16.8697 17.9302 17.2048 18.2652L20.7197 21.7803C21.0133 22.0691 21.4848 22.0672 21.7761 21.7761C22.0673 21.4849 22.0693 21.0134 21.7805 20.7197L18.692 17.6313Z" fill="#3E3E3E"/>
</svg>
