<svg width="30" height="30" viewBox="0 0 30 30" fill="none" xmlns="http://www.w3.org/2000/svg">
<path d="M27.3437 12.5H17.1875V2.34375C17.1875 1.09375 16.0937 0 14.8437 0C13.5937 0 12.5 1.09375 12.5 2.34375V12.5H2.34375C1.09375 12.5 0 13.5937 0 14.8437C0 16.0937 1.09375 17.1875 2.34375 17.1875H12.5V27.3437C12.5 28.5937 13.5937 29.6875 14.8437 29.6875C16.0937 29.6875 17.1875 28.5937 17.1875 27.3437V17.1875H27.3437C28.5937 17.1875 29.6875 16.0937 29.6875 14.8437C29.6875 13.5937 28.5937 12.5 27.3437 12.5Z" fill="white"/>
</svg>
